<?xml version="1.0" standalone="no"?>
<!DOCTYPE svg PUBLIC "-//W3C//DTD SVG 20010904//EN"
 "http://www.w3.org/TR/2001/REC-SVG-20010904/DTD/svg10.dtd">
<svg version="1.0" xmlns="http://www.w3.org/2000/svg"
 width="700.000000pt" height="700.000000pt" viewBox="0 0 700.000000 700.000000"
 preserveAspectRatio="xMidYMid meet">
<metadata>
Created by potrace 1.14, written by Peter Selinger 2001-2017
</metadata>
<g transform="translate(0.000000,700.000000) scale(0.100000,-0.100000)"
fill="#000000" stroke="none">
<path d="M844 6985 c-226 -41 -406 -136 -560 -297 -129 -134 -210 -281 -256
-464 l-23 -89 0 -2635 0 -2635 23 -89 c46 -184 127 -330 257 -465 134 -140
297 -234 492 -284 l88 -22 2635 0 2635 0 88 22 c196 51 357 143 493 285 129
134 210 281 256 464 l23 89 0 2635 0 2635 -23 89 c-94 369 -362 642 -731 744
l-96 27 -2615 2 c-2095 1 -2629 -1 -2686 -12z m2816 -1415 c890 -68 1641 -704
1854 -1570 75 -307 77 -672 5 -980 -67 -286 -229 -614 -414 -836 -337 -404
-806 -668 -1314 -738 -147 -21 -435 -21 -582 0 -966 134 -1705 926 -1780 1906
-31 410 69 845 274 1189 107 179 176 268 332 424 207 207 403 342 649 445 319
135 630 186 976 160z"/>
<path d="M3286 4745 c-288 -60 -556 -235 -732 -481 -103 -144 -187 -347 -220
-534 -22 -123 -22 -335 -1 -456 83 -467 399 -843 827 -983 155 -51 365 -65
533 -36 90 16 230 61 302 97 162 82 352 248 454 398 168 245 239 494 228 800
-8 225 -45 370 -143 560 -159 308 -423 526 -744 616 -82 22 -119 27 -265 30
-121 2 -190 -1 -239 -11z"/>
</g>
</svg>
