<?xml version="1.0" encoding="utf-8"?>
<!-- Generator: Adobe Illustrator 26.0.3, SVG Export Plug-In . SVG Version: 6.00 Build 0)  -->
<svg version="1.1" id="Layer_1" xmlns="http://www.w3.org/2000/svg" xmlns:xlink="http://www.w3.org/1999/xlink" x="0px" y="0px"
	 viewBox="0 0 1447 644.4" style="enable-background:new 0 0 1447 644.4;" xml:space="preserve">
<g>
	<path d="M480.6,118.2c-42.4,0-76.7,34.3-76.7,76.7c0,42.4,34.3,76.7,76.7,76.7s76.7-34.3,76.7-76.7
		C557.3,152.5,523,118.2,480.6,118.2z M480.6,241.5c-24.2,0-43.8-20.9-43.8-46.7s19.6-46.7,43.8-46.7s43.8,20.9,43.8,46.7
		S504.8,241.5,480.6,241.5z M409.3,292.4h-32.2c-1.2,0-2.4,0.7-2.8,1.9l-23.7,53.5l-23.7-53.5c-0.5-1.1-1.6-1.9-2.8-1.9h-32.2
		c-0.2,0-0.3,0.2-0.3,0.4l41.6,91c1,2.1,1.5,4.5,1.5,6.8v48.6h32v-48.9c0-2.3,0.5-4.7,1.5-6.8l41.4-90.7
		C409.6,292.6,409.5,292.4,409.3,292.4z M726.3,268.3h75.6v-31.1h-75.6v-29.7h69.3v-29.2h-69.3v-25.8h75.6v-31.1h-75.6h-26.7h-4.9
		v146.9h4.9H726.3z M180.6,292.4h-4.9v146.9h4.9h26.7H283v-31.1h-75.6v-29.7h69.3v-29.2h-69.3v-25.8H283v-31.1h-75.6H180.6z
		 M645.9,183.2l0.8,22.8l-0.1,3.1L602.8,124c-0.8-1.6-2.5-2.6-4.3-2.6h-28.2v146.9h31.1v-66.1l-0.6-20.3l7.9,17l36.2,67.8
		c0.5,1,1.6,1.6,2.7,1.6H677h0V121.4h-31.1V183.2z M480.6,288.9c-42.4,0-76.7,34.3-76.7,76.7c0,42.4,34.3,76.7,76.7,76.7
		s76.7-34.3,76.7-76.7C557.3,323.3,523,288.9,480.6,288.9z M480.6,412.3c-24.2,0-43.8-20.9-43.8-46.7s19.6-46.7,43.8-46.7
		s43.8,20.9,43.8,46.7S504.8,412.3,480.6,412.3z M645.9,354l0.8,22.8l-0.1,3.1l-43.8-85.2c-0.8-1.6-2.5-2.6-4.3-2.6h-28.2V439h31.1
		v-66.1l-0.6-20.3l7.9,17l36.2,67.8c0.5,1,1.6,1.6,2.7,1.6H677h0V292.1h-31.1V354z M743.2,292.4h-48.6v146.7h48.6
		c39.9,0,72.3-32.8,72.3-73.4C815.5,325.2,783.2,292.4,743.2,292.4z M743.2,409.3h-16.5v-87.2h16.5c21.7,0,39.4,19.5,39.4,43.6
		S765,409.3,743.2,409.3z M142,361.3c10.3-6.3,17.3-18.4,17.3-32.2c0-21.7-19.9-36.8-39.9-36.8H89.9v0h-32v147h25.7h6.3h31
		c20.8,0,42.5-17.5,42.5-40.9C163.4,381.2,154.7,367.5,142,361.3z M89.9,351.8v-33h22c8.7,0,15.7,7.4,15.7,16.5
		c0,9.1-7,16.5-15.7,16.5H89.9z M115.3,412.7H89.9v-3.3v-31.2h25.4c8.7,0,15.7,7.7,15.7,17.3C131,405,124,412.7,115.3,412.7z"/>
	<rect x="832.1" y="118.3" width="576" height="324"/>
</g>
<g>
	<path d="M80.5,488.3h11.2l22.5,58.3h-11.5l-4.5-12H74.4l-4.8,12H58.1L80.5,488.3z M86.2,503.7l-7.7,20h15.4L86.2,503.7z"/>
	<path d="M171.9,536.8c-7.7,7.5-14.4,11.2-25.3,11.2c-18.3,0-30.8-12.7-30.8-30.7c0-18.4,14.3-30.5,31-30.5c9.7,0,19,4.2,25.4,11.7
		l-7.8,7.5c-5.3-5.6-11-8.5-17.9-8.5c-11,0-19.9,8.4-19.9,19.9c0,12,8.6,20.1,20.1,20.1c7.2,0,12.1-2.9,17.6-8.4L171.9,536.8z"/>
	<path d="M232.8,536.8c-7.7,7.5-14.4,11.2-25.3,11.2c-18.3,0-30.8-12.7-30.8-30.7c0-18.4,14.3-30.5,31-30.5c9.7,0,19,4.2,25.4,11.7
		l-7.8,7.5c-5.3-5.6-11-8.5-17.9-8.5c-11,0-19.9,8.4-19.9,19.9c0,12,8.6,20.1,20.1,20.1c7.2,0,12.1-2.9,17.6-8.4L232.8,536.8z"/>
	<path d="M241.7,488.3h31.8v10.9h-20.7v10.4h20.7v10.9h-20.7v15.3h20.7v10.9h-31.8V488.3z"/>
	<path d="M285.3,488.3h11.1V536h16.2v10.6h-27.3V488.3z"/>
	<path d="M320.5,488.3h31.8v10.9h-20.7v10.4h20.7v10.9h-20.7v15.3h20.7v10.9h-31.8V488.3z"/>
	<path d="M364.4,488.3H378c7.4,0,12.6,0.9,16.5,4.7c2.9,2.8,4.7,7.2,4.7,12.2c0,7.6-3.8,12.8-11.2,15.5l13.8,25.9h-12.1l-13.1-24.7
		h-1.1v24.7h-11.1V488.3z M375.5,511.1h5.1c5,0,7.6-2,7.6-6c0-3.8-2.7-5.9-8-5.9h-4.8V511.1z"/>
	<path d="M427.4,488.3h11.2l22.5,58.3h-11.5l-4.5-12h-23.8l-4.8,12h-11.5L427.4,488.3z M433.1,503.7l-7.7,20h15.4L433.1,503.7z"/>
	<path d="M460.4,488.3h32.2v10.9h-10.7v47.4h-11.1v-47.4h-10.4V488.3z"/>
	<path d="M499.7,488.3h11.1v58.3h-11.1V488.3z"/>
	<path d="M523.7,488.3h10.6l25,38.3v-38.3h11.1v58.3h-10.7l-24.9-38.2v38.2h-11.1V488.3z"/>
	<path d="M639.9,516.9c0,7.9-1.1,14.5-7,21.3c-5.7,6.7-12.7,9.7-22,9.7c-19.4,0-31.6-14.4-31.6-30.9c0-16.4,12.8-30.2,31.3-30.2
		c11.5,0,18.9,4.1,25.2,10.9l-7.8,7.7c-5-5.2-10.4-8-17.3-8c-11.7,0-20.1,8.9-20.1,19.7c0,11.3,9.2,20.1,20.9,20.1
		c7.7,0,12.8-3.2,16-9.9h-16.9v-10.6H639.9z"/>
	<path d="M669.4,488.3h32.2v10.9h-10.7v47.4h-11.1v-47.4h-10.4V488.3z"/>
	<path d="M708.7,488.3h11.1v21.9h19.6v-21.9h11.1v58.3h-11.1V521h-19.6v25.5h-11.1V488.3z"/>
	<path d="M762.5,488.3h31.8v10.9h-20.7v10.4h20.7v10.9h-20.7v15.3h20.7v10.9h-31.8V488.3z"/>
	<path d="M829.7,488.3h14c10.2,0,17.5,1.2,23.8,7.4c5.3,5.1,8.4,13.2,8.4,22.5c0,10-3.7,18.3-10,23.1c-6.7,5.2-13.6,5.3-22.1,5.3
		h-14.2V488.3z M840.8,499.1v36.5h5.8c6.1,0,10.4-0.8,13.8-4.5c2.7-2.9,4.3-7.6,4.3-13.3c0-12.2-6.7-18.8-19.4-18.8H840.8z"/>
	<path d="M885.5,488.3h11.1v58.3h-11.1V488.3z"/>
	<path d="M966.6,516.9c0,7.9-1.1,14.5-7,21.3c-5.7,6.7-12.7,9.7-22,9.7c-19.4,0-31.6-14.4-31.6-30.9c0-16.4,12.8-30.2,31.3-30.2
		c11.5,0,18.9,4.1,25.2,10.9l-7.8,7.7c-5-5.2-10.4-8-17.3-8c-11.7,0-20.1,8.9-20.1,19.7c0,11.3,9.2,20.1,20.9,20.1
		c7.7,0,12.8-3.2,16-9.9h-16.9v-10.6H966.6z"/>
	<path d="M975.4,488.3h11.1v58.3h-11.1V488.3z"/>
	<path d="M994.3,488.3h32.2v10.9h-10.7v47.4h-11.1v-47.4h-10.4V488.3z"/>
	<path d="M1048,488.3h11.2l22.5,58.3h-11.5l-4.5-12h-23.8l-4.8,12h-11.5L1048,488.3z M1053.7,503.7l-7.7,20h15.4L1053.7,503.7z"/>
	<path d="M1089.4,488.3h11.1V536h16.2v10.6h-27.3V488.3z"/>
	<path d="M1150.3,488.3h28.9v10.9h-18.1v10.4h18.1v10.9h-18.1v26.1h-10.8V488.3z"/>
	<path d="M1189.1,488.3h11.1v39.5c0,6.3,3.1,9.6,8.4,9.6c3.2,0,6-1.3,7.4-3.5c1.2-1.9,1.4-4.5,1.4-7.6v-37.9h11.1v37.1
		c0,6.4-0.3,11.3-4.7,16.4c-3.7,4.3-8.6,6.2-14.9,6.2c-6,0-10.8-1.7-14.4-5.5c-4.7-4.9-5.4-10.1-5.4-17.7V488.3z"/>
	<path d="M1235.9,488.3h32.2v10.9h-10.7v47.4h-11.1v-47.4h-10.4V488.3z"/>
	<path d="M1275.4,488.3h11.1v39.5c0,6.3,3.1,9.6,8.4,9.6c3.2,0,6-1.3,7.4-3.5c1.2-1.9,1.4-4.5,1.4-7.6v-37.9h11.1v37.1
		c0,6.4-0.3,11.3-4.7,16.4c-3.7,4.3-8.6,6.2-14.9,6.2c-6,0-10.8-1.7-14.4-5.5c-4.7-4.9-5.4-10.1-5.4-17.7V488.3z"/>
	<path d="M1327.9,488.3h13.6c7.4,0,12.6,0.9,16.5,4.7c2.9,2.8,4.7,7.2,4.7,12.2c0,7.6-3.8,12.8-11.2,15.5l13.8,25.9h-12.1
		l-13.1-24.7h-1.1v24.7h-11.1V488.3z M1339.1,511.1h5.1c5,0,7.6-2,7.6-6c0-3.8-2.7-5.9-8-5.9h-4.8V511.1z"/>
	<path d="M1374,488.3h31.8v10.9h-20.7v10.4h20.7v10.9h-20.7v15.3h20.7v10.9H1374V488.3z"/>
</g>
</svg>
