<?xml version="1.0" encoding="utf-8"?>
<!-- Generator: Adobe Illustrator 26.0.3, SVG Export Plug-In . SVG Version: 6.00 Build 0)  -->
<svg version="1.1" id="Layer_1" xmlns="http://www.w3.org/2000/svg" xmlns:xlink="http://www.w3.org/1999/xlink" x="0px" y="0px"
	 viewBox="0 0 1466.3 560" style="enable-background:new 0 0 1466.3 560;" xml:space="preserve">
<g>
	<path d="M480.6,118.2c-42.4,0-76.7,34.3-76.7,76.7c0,42.4,34.3,76.7,76.7,76.7s76.7-34.3,76.7-76.7
		C557.3,152.5,523,118.2,480.6,118.2z M480.6,241.5c-24.2,0-43.8-20.9-43.8-46.7s19.6-46.7,43.8-46.7s43.8,20.9,43.8,46.7
		S504.8,241.5,480.6,241.5z M409.3,292.4h-32.2c-1.2,0-2.4,0.7-2.8,1.9l-23.7,53.5l-23.7-53.5c-0.5-1.1-1.6-1.9-2.8-1.9h-32.2
		c-0.2,0-0.3,0.2-0.3,0.4l41.6,91c1,2.1,1.5,4.5,1.5,6.8v48.6h32v-48.9c0-2.3,0.5-4.7,1.5-6.8l41.4-90.7
		C409.6,292.6,409.5,292.4,409.3,292.4z M726.3,268.3h75.6v-31.1h-75.6v-29.7h69.3v-29.2h-69.3v-25.8h75.6v-31.1h-75.6h-26.7h-4.9
		v146.9h4.9H726.3z M180.6,292.4h-4.9v146.9h4.9h26.7H283v-31.1h-75.6v-29.7h69.3v-29.2h-69.3v-25.8H283v-31.1h-75.6H180.6z
		 M645.9,183.2l0.8,22.8l-0.1,3.1L602.8,124c-0.8-1.6-2.5-2.6-4.3-2.6h-28.2v146.9h31.1v-66.1l-0.6-20.3l7.9,17l36.2,67.8
		c0.5,1,1.6,1.6,2.7,1.6H677h0V121.4h-31.1V183.2z M480.6,288.9c-42.4,0-76.7,34.3-76.7,76.7c0,42.4,34.3,76.7,76.7,76.7
		s76.7-34.3,76.7-76.7C557.3,323.3,523,288.9,480.6,288.9z M480.6,412.3c-24.2,0-43.8-20.9-43.8-46.7s19.6-46.7,43.8-46.7
		s43.8,20.9,43.8,46.7S504.8,412.3,480.6,412.3z M645.9,354l0.8,22.8l-0.1,3.1l-43.8-85.2c-0.8-1.6-2.5-2.6-4.3-2.6h-28.2V439h31.1
		v-66.1l-0.6-20.3l7.9,17l36.2,67.8c0.5,1,1.6,1.6,2.7,1.6H677h0V292.1h-31.1V354z M743.2,292.4h-48.6v146.7h48.6
		c39.9,0,72.3-32.8,72.3-73.4C815.5,325.2,783.2,292.4,743.2,292.4z M743.2,409.3h-16.5v-87.2h16.5c21.7,0,39.4,19.5,39.4,43.6
		S765,409.3,743.2,409.3z M142,361.3c10.3-6.3,17.3-18.4,17.3-32.2c0-21.7-19.9-36.8-39.9-36.8H89.9v0h-32v147h25.7h6.3h31
		c20.8,0,42.5-17.5,42.5-40.9C163.4,381.2,154.7,367.5,142,361.3z M89.9,351.8v-33h22c8.7,0,15.7,7.4,15.7,16.5
		c0,9.1-7,16.5-15.7,16.5H89.9z M115.3,412.7H89.9v-3.3v-31.2h25.4c8.7,0,15.7,7.7,15.7,17.3C131,405,124,412.7,115.3,412.7z"/>
	<rect x="832.1" y="118.3" width="576" height="324"/>
</g>
</svg>
